<?xml version="1.0" encoding="UTF-8" standalone="no"?>
<svg
   xmlns:dc="http://purl.org/dc/elements/1.1/"
   xmlns:cc="http://creativecommons.org/ns#"
   xmlns:rdf="http://www.w3.org/1999/02/22-rdf-syntax-ns#"
   xmlns:svg="http://www.w3.org/2000/svg"
   xmlns="http://www.w3.org/2000/svg"
   xmlns:sodipodi="http://sodipodi.sourceforge.net/DTD/sodipodi-0.dtd"
   xmlns:inkscape="http://www.inkscape.org/namespaces/inkscape"
   version="1.1"
   id="svg2"
   viewBox="0 0 141.73229 141.73228"
   height="40mm"
   width="40mm"
   inkscape:version="0.91 r13725"
   sodipodi:docname="logo-square.svg"
   inkscape:export-filename="/home/fischerq/Documents/Tembryo/corporate-media/tembryo-logo/logo.png"
   inkscape:export-xdpi="469.83841"
   inkscape:export-ydpi="469.83841">
  <sodipodi:namedview
     pagecolor="#ffffff"
     bordercolor="#666666"
     borderopacity="1"
     objecttolerance="10"
     gridtolerance="10"
     guidetolerance="10"
     inkscape:pageopacity="0"
     inkscape:pageshadow="2"
     inkscape:window-width="1855"
     inkscape:window-height="1056"
     id="namedview14"
     showgrid="false"
     showguides="true"
     inkscape:guide-bbox="true"
     inkscape:zoom="1.4867313"
     inkscape:cx="-308.90229"
     inkscape:cy="174.30457"
     inkscape:window-x="65"
     inkscape:window-y="24"
     inkscape:window-maximized="1"
     inkscape:current-layer="svg2" />
  <defs
     id="defs4" />
  <metadata
     id="metadata7">
    <rdf:RDF>
      <cc:Work
         rdf:about="">
        <dc:format>image/svg+xml</dc:format>
        <dc:type
           rdf:resource="http://purl.org/dc/dcmitype/StillImage" />
        <dc:title />
      </cc:Work>
    </rdf:RDF>
  </metadata>
  <g
     id="g4260"
     transform="matrix(1,0,0,0.99995139,-1.2034875,27.986465)">
    <g
       id="text4136"
       style="font-style:normal;font-variant:normal;font-weight:normal;font-stretch:normal;font-size:41.6920929px;line-height:125%;font-family:Umpush;-inkscape-font-specification:Umpush;letter-spacing:0px;word-spacing:0px;fill:#800000;fill-opacity:1;stroke:none;stroke-width:1px;stroke-linecap:butt;stroke-linejoin:miter;stroke-opacity:1"
       transform="matrix(0.97702971,0,0,1.0083877,-139.25446,-66.813383)">
      <path
         id="path4160"
         d="m 167.44559,120.44462 0,-26.05756 -9.97516,0 0,-3.460769 23.65538,0 0,3.460769 -10.01588,0 0,26.05756 -3.66434,0 z"
         inkscape:connector-curvature="0" />
    </g>
    <path
       d="m 35.147933,47.540394 q 0.0291,1.424905 0.4362,2.471775 0.42165,1.032328 1.09049,1.599372 0.68337,0.552522 1.43943,0.814237 0.75607,0.247173 1.61393,0.247173 1.58484,0 2.61716,-0.756071 1.03233,-0.756072 1.45398,-2.093729 l 2.70441,0 q -0.43619,2.311829 -2.23913,3.664028 -1.80293,1.337667 -4.55097,1.337667 -3.50409,0 -5.43788,-2.050115 -1.91926,-2.064656 -1.91926,-5.772308 0,-3.751276 1.90472,-6.00494 1.90471,-2.253674 5.30703,-2.253674 3.38777,0 5.19071,2.253674 1.81748,2.239123 1.81748,6.542911 l -11.4283,0 z m 8.65119,-2.151894 q -0.0436,-0.610668 -0.159931,-1.148639 -0.11632,-0.552513 -0.42165,-1.192273 -0.290799,-0.639751 -0.726999,-1.090484 -0.436191,-0.450733 -1.19226,-0.756072 -0.74154,-0.305329 -1.70117,-0.305329 -1.81747,0 -3.05336,1.308585 -1.22134,1.308574 -1.33765,3.184212 l 8.59302,0 z"
       style="font-style:normal;font-variant:normal;font-weight:normal;font-stretch:normal;font-size:30px;line-height:125%;font-family:Umpush;-inkscape-font-specification:Umpush;letter-spacing:0px;word-spacing:0px;fill:#202020;fill-opacity:1;stroke:none;stroke-width:1px;stroke-linecap:butt;stroke-linejoin:miter;stroke-opacity:1"
       id="path4147"
       inkscape:connector-curvature="0" />
    <path
       d="m 58.949612,44.385255 q 0,-1.904711 -0.69791,-2.689866 -0.683369,-0.799686 -2.00649,-0.799686 -1.06141,0 -1.83202,0.392568 -0.75607,0.392577 -1.192259,1.16319 -0.42165,0.756072 -0.61067,1.730234 -0.18902,0.959631 -0.18902,2.224592 l 0,8.258623 -2.61717,0 0,-15.441285 2.61717,0 0,1.788389 q 0.0145,-0.01449 0.27626,-0.31987 0.26171,-0.305339 0.43619,-0.479815 0.18902,-0.189018 0.59614,-0.494357 0.4071,-0.319871 0.79968,-0.494347 0.40712,-0.189018 1.01779,-0.334422 0.61067,-0.145394 1.2795,-0.145394 3.37324,0 4.33287,2.704407 1.83201,-2.704407 4.78359,-2.704407 2.25368,0 3.504109,1.26496 1.264961,1.26497 1.264961,3.954836 l 0,10.701305 -2.61717,0 0,-9.974316 q 0,-2.035574 -0.639751,-2.907966 -0.625209,-0.886925 -2.09373,-0.886925 -0.46527,0 -0.901479,0.08725 -0.436191,0.07266 -0.9887,0.363494 -0.55251,0.290798 -0.95963,0.756072 -0.39258,0.465274 -0.66883,1.337657 -0.27626,0.857851 -0.27626,2.0065 l 0,9.218245 -2.61717,0 0,-10.279655 z"
       style="font-style:normal;font-variant:normal;font-weight:normal;font-stretch:normal;font-size:30px;line-height:125%;font-family:Umpush;-inkscape-font-specification:Umpush;letter-spacing:0px;word-spacing:0px;fill:#202020;fill-opacity:1;stroke:none;stroke-width:1px;stroke-linecap:butt;stroke-linejoin:miter;stroke-opacity:1"
       id="path4149"
       inkscape:connector-curvature="0" />
    <path
       d="m 81.340943,54.824846 q -0.901471,0 -1.68662,-0.20356 -0.770621,-0.2181 -1.29405,-0.552512 -0.508891,-0.334412 -0.79969,-0.596137 -0.290791,-0.261715 -0.50889,-0.537971 l 0,1.730244 -2.42815,0 0,-21.315373 2.617169,0 0,7.488001 q 1.67208,-2.093729 4.231081,-2.093729 3.00974,0 4.76906,2.224591 1.77386,2.21005 1.77386,5.68507 0,3.591331 -1.77386,5.888619 -1.75932,2.282757 -4.89991,2.282757 z M 81.239162,40.895703 q -1.730239,0 -2.878889,1.744776 -1.14865,1.730234 -1.14865,4.085688 0,1.308584 0.261719,2.369985 0.26172,1.061411 0.654291,1.715703 0.407119,0.63975 0.930549,1.075942 0.53798,0.436201 1.04687,0.610678 0.5089,0.174476 1.01779,0.174476 2.06465,0 3.16968,-1.628454 1.10502,-1.643006 1.10502,-4.21655 0,-1.337667 -0.27625,-2.399068 -0.26172,-1.061411 -0.697909,-1.701162 -0.421661,-0.654292 -0.98871,-1.075952 -0.56706,-0.42165 -1.10503,-0.581585 -0.53797,-0.174477 -1.090481,-0.174477 z"
       style="font-style:normal;font-variant:normal;font-weight:normal;font-stretch:normal;font-size:30px;line-height:125%;font-family:Umpush;-inkscape-font-specification:Umpush;letter-spacing:0px;word-spacing:0px;fill:#202020;fill-opacity:1;stroke:none;stroke-width:1px;stroke-linecap:butt;stroke-linejoin:miter;stroke-opacity:1"
       id="path4151"
       inkscape:connector-curvature="0" />
    <path
       d="m 96.428663,40.895703 q -1.381281,0 -2.180971,1.395823 -0.79969,1.395822 -0.79969,4.012981 l 0,8.360403 -2.61717,0 0,-15.441285 2.61717,0 0,1.308584 q 0.2908,-0.334422 0.47981,-0.52344 0.18902,-0.189018 0.62521,-0.537971 0.4362,-0.363494 0.95964,-0.537971 0.53797,-0.189018 1.1341,-0.189018 1.4249,0 2.57355,0.712448 l -0.90147,2.0065 q -0.95963,-0.567054 -1.89018,-0.567054 z"
       style="font-style:normal;font-variant:normal;font-weight:normal;font-stretch:normal;font-size:30px;line-height:125%;font-family:Umpush;-inkscape-font-specification:Umpush;letter-spacing:0px;word-spacing:0px;fill:#202020;fill-opacity:1;stroke:none;stroke-width:1px;stroke-linecap:butt;stroke-linejoin:miter;stroke-opacity:1"
       id="path4153"
       inkscape:connector-curvature="0" />
    <path
       d="m 102.04506,60.698931 -0.2908,-2.16643 q 0.77061,0.20356 1.55577,0.20356 0.82876,0 1.42489,-0.2908 0.61068,-0.27626 0.93055,-0.668835 0.33442,-0.378036 0.52344,-0.988704 0.20355,-0.610678 0.26171,-1.061411 0.0582,-0.436191 0.0872,-1.032328 l -5.85954,-15.470358 2.82072,0 4.33287,12.518778 4.37648,-12.518778 2.61717,0 -5.87409,15.455817 q -0.0872,0.770613 -0.20356,1.381291 -0.10178,0.610668 -0.33441,1.381281 -0.23264,0.770617 -0.61068,1.337657 -0.37803,0.56705 -0.93055,1.06141 -0.53797,0.5089 -1.35219,0.77061 -0.81423,0.27626 -1.84656,0.27626 -1.14865,0 -1.62846,-0.18902 z"
       style="font-style:normal;font-variant:normal;font-weight:normal;font-stretch:normal;font-size:30px;line-height:125%;font-family:Umpush;-inkscape-font-specification:Umpush;letter-spacing:0px;word-spacing:0px;fill:#202020;fill-opacity:1;stroke:none;stroke-width:1px;stroke-linecap:butt;stroke-linejoin:miter;stroke-opacity:1"
       id="path4155"
       inkscape:connector-curvature="0" />
    <path
       d="m 122.31415,54.949846 q -3.46048,0 -5.35066,-2.093739 -1.89018,-2.10827 -1.89018,-5.859546 0,-3.736725 1.89018,-5.932243 1.90472,-2.195509 5.35066,-2.195509 3.34415,0 5.27795,2.151894 1.94833,2.151885 1.94833,5.757767 0,1.817473 -0.40712,3.242378 -0.39257,1.424905 -1.07594,2.340912 -0.66883,0.916007 -1.61392,1.512134 -0.94509,0.596136 -1.96288,0.84331 -1.00324,0.232642 -2.16642,0.232642 z m 0,-13.929143 q -2.21006,0 -3.41687,1.642996 -1.2068,1.628455 -1.2068,4.332862 0,1.381291 0.30534,2.442692 0.31988,1.06141 0.78515,1.68662 0.47981,0.610668 1.11956,1.003245 0.65429,0.392577 1.22134,0.537971 0.5816,0.130862 1.19228,0.130862 2.23912,0 3.41685,-1.58484 1.19226,-1.584841 1.19226,-4.303789 0,-1.119566 -0.2181,-2.050114 -0.20355,-0.930549 -0.58158,-1.555758 -0.3635,-0.625209 -0.82877,-1.075942 -0.45074,-0.465274 -0.98872,-0.712458 -0.52342,-0.261715 -1.01778,-0.378036 -0.49436,-0.116311 -0.97416,-0.116311 z"
       style="font-style:normal;font-variant:normal;font-weight:normal;font-stretch:normal;font-size:30px;line-height:125%;font-family:Umpush;-inkscape-font-specification:Umpush;letter-spacing:0px;word-spacing:0px;fill:#202020;fill-opacity:1;stroke:none;stroke-width:1px;stroke-linecap:butt;stroke-linejoin:miter;stroke-opacity:1"
       id="path4157"
       inkscape:connector-curvature="0" />
  </g>
</svg>
